<?xml version="1.0" encoding="UTF-8"?>
<!-- O caixote empurrado pela força F, que desliza com velocidade constante. Enunciado do item 1c.
     Autossuficiente: pode ser aberto direto no navegador, usado em <img src>,
     inserido em slide ou importado em editor vetorial.
     Tinta preta: a figura nasceu numa prova impressa e nao tem tema escuro.
     Fonte da geometria: atividades/testes/prova-newton-discursiva/prova_newton_discursiva.html
     Gerado por scripts/extrair-figuras-provas.ps1 - nao editar a mao. -->
<svg xmlns="http://www.w3.org/2000/svg" viewBox="0 0 420 200" width="840" height="400"
     role="img" aria-labelledby="prova-newton-discursiva-1c-caixote-empurrado">
  <title id="prova-newton-discursiva-1c-caixote-empurrado">O caixote empurrado pela força F, que desliza com velocidade constante. Enunciado do item 1c.</title>

          <rect width="100%" height="100%" fill="#fff"/><defs><marker id="pf-caixote" viewBox="0 0 10 10" refX="8" refY="5"
      markerWidth="5" markerHeight="5" orient="auto"><path d="M0,0 L10,5 L0,10 z" fill="#111"/></marker></defs><line x1="20" y1="150" x2="400" y2="150" stroke="#111" stroke-width="2.2"/><path d="M30,150 L20,162 M54,150 L44,162 M78,150 L68,162 M102,150 L92,162 M126,150 L116,162 M150,150 L140,162 M174,150 L164,162 M198,150 L188,162 M222,150 L212,162 M246,150 L236,162 M270,150 L260,162 M294,150 L284,162 M318,150 L308,162 M342,150 L332,162 M366,150 L356,162 M390,150 L380,162" stroke="#111" stroke-width="1.3" fill="none" opacity=".75"/>
    <rect x="150" y="88" width="92" height="62" rx="3" fill="#f2f2f2" stroke="#111" stroke-width="2"/>
   <text x="196" y="125" text-anchor="middle" font-size="17" font-weight="700" fill="#111">caixote</text>
    <line x1="52" y1="118" x2="144" y2="118" stroke="#111" stroke-width="2.6" marker-end="url(#pf-caixote)"/><text x="60" y="106" font-size="15" font-weight="700" fill="#111">F</text>
    <text x="20" y="182" font-size="13" font-weight="400" fill="#111">piso com atrito</text>
        
</svg>